<?xml version="1.0" standalone="no"?>
<!DOCTYPE svg PUBLIC "-//W3C//DTD SVG 20010904//EN"
 "http://www.w3.org/TR/2001/REC-SVG-20010904/DTD/svg10.dtd">
<svg version="1.0" xmlns="http://www.w3.org/2000/svg"
 width="50.000000pt" height="50.000000pt" viewBox="0 0 512.000000 512.000000"
 preserveAspectRatio="xMidYMid meet">

<g transform="translate(0.000000,512.000000) scale(0.100000,-0.100000)"
fill="#77bd1b" stroke="none">
<path d="M2465 3390 c-58 -28 -1359 -1332 -1380 -1382 -56 -136 32 -286 174
-296 112 -8 83 -32 719 601 l582 581 583 -581 c634 -633 606 -609 717 -601
105 8 180 83 188 188 8 112 39 75 -687 803 -446 447 -679 674 -707 687 -53 26
-136 26 -189 0z"/>
</g>
</svg>
